<svg width="80" height="80" viewBox="0 0 80 80" fill="none" xmlns="http://www.w3.org/2000/svg">
<path d="M62.7833 24.4333C55.5833 20.8333 44.2667 20.8333 40 20.8333C35.7333 20.8333 25.2167 20.8333 18.0167 24.0667C17.3667 23 16.0167 22.5333 14.85 23.0667C13.45 23.7 12.45 24.7833 12.25 24.9833C11.3667 25.9667 11.4333 27.4167 12.3333 28.35C7.94999 33.55 6.13332 41.5 7.56666 47.25C9.63332 55.4833 15.8167 60.8167 23.3333 60.8167C28.9 60.8167 31.65 58.7333 33.85 57.0667C34.65 56.45 35.35 55.9333 36.1167 55.55C38.7333 54.25 41.2667 54.25 43.8833 55.55C44.65 55.9333 45.35 56.45 46.15 57.0667C48.3667 58.7333 51.1 60.8167 56.6667 60.8167C64.1833 60.8167 70.3667 55.5 72.4333 47.25C74.3167 39.6833 70.6 28.3167 62.8 24.4L62.7833 24.4333ZM67.5667 46.0667C66.0833 52 61.8 55.8333 56.6667 55.8333C52.7833 55.8333 51.1 54.5667 49.1667 53.1C48.25 52.4 47.3 51.6833 46.1167 51.1C44.0833 50.0833 42.05 49.5833 40 49.5833C37.95 49.5833 35.9167 50.0833 33.8833 51.1C32.7 51.6833 31.75 52.4 30.8333 53.1C28.8833 54.5667 27.2167 55.8333 23.3333 55.8333C18.1833 55.8333 13.9167 52 12.4333 46.0667C11.0667 40.5667 13.8833 31.7 19.4667 28.9167C25.6 25.85 36.0667 25.85 40.0167 25.85C43.9667 25.85 54.4333 25.85 60.5667 28.9167C66.1333 31.7 68.9667 40.5833 67.6 46.0667H67.5667Z" fill="black"/>
<path d="M59.4 31.6833C58.5 31.05 56.75 30.3 53.6 29.3333C50.8167 28.4833 45.6333 27.9167 40 27.9167C34.3667 27.9167 29.1833 28.4833 26.4 29.3333C23.25 30.3 21.5167 31.05 20.6 31.6833C19.7 32.3167 19.6167 32.85 19.7833 33.35C19.95 33.85 20.85 33.8167 22.55 33.5833C24.25 33.3667 26.7667 32.9667 30.15 32.7667C33.0833 32.6 38.8167 32.5167 39.9667 32.5167C41.1167 32.5167 46.85 32.6 49.7833 32.7667C53.1833 32.9667 55.6833 33.3667 57.3833 33.5833C59.0833 33.8 59.9833 33.85 60.15 33.35C60.3167 32.85 60.25 32.3167 59.3333 31.6833H59.4Z" fill="black"/>
</svg>
